<svg xmlns="http://www.w3.org/2000/svg" width="208" height="16" viewBox="0 0 208 16" shape-rendering="crispEdges">
  <g id="move"><rect x="1" y="7" width="9" height="2" fill="#30d1fa"/><rect x="8" y="4" width="3" height="8" fill="#30d1fa"/><rect x="10" y="3" width="2" height="2" fill="#30d1fa"/><rect x="12" y="5" width="2" height="2" fill="#30d1fa"/><rect x="12" y="9" width="2" height="2" fill="#30d1fa"/><rect x="10" y="11" width="2" height="2" fill="#30d1fa"/><rect x="1" y="6" width="7" height="1" fill="#eaf8fc"/><rect x="1" y="9" width="7" height="1" fill="#0b1118"/></g>
  <g id="draw" transform="translate(16)"><rect x="3" y="3" width="8" height="10" fill="#0b1118"/><rect x="4" y="2" width="8" height="10" fill="#30d1fa"/><rect x="6" y="4" width="4" height="1" fill="#eaf8fc"/><rect x="6" y="6" width="4" height="1" fill="#0f1822"/><rect x="6" y="8" width="3" height="1" fill="#0f1822"/><rect x="12" y="1" width="2" height="5" fill="#ffb03a"/><rect x="10" y="3" width="6" height="2" fill="#ffb03a"/></g>
  <g id="differentiate" transform="translate(32)"><rect x="7" y="2" width="2" height="7" fill="#30d1fa"/><rect x="4" y="8" width="2" height="5" fill="#30d1fa"/><rect x="10" y="8" width="2" height="5" fill="#30d1fa"/><rect x="5" y="6" width="6" height="2" fill="#30d1fa"/><rect x="3" y="12" width="4" height="2" fill="#eaf8fc"/><rect x="9" y="12" width="4" height="2" fill="#eaf8fc"/><rect x="6" y="1" width="4" height="2" fill="#eaf8fc"/></g>
  <g id="antibody" transform="translate(48)"><rect x="3" y="2" width="2" height="7" fill="#30d1fa"/><rect x="11" y="2" width="2" height="7" fill="#30d1fa"/><rect x="5" y="7" width="6" height="2" fill="#30d1fa"/><rect x="4" y="1" width="3" height="2" fill="#eaf8fc"/><rect x="9" y="1" width="3" height="2" fill="#eaf8fc"/><rect x="6" y="9" width="4" height="3" fill="#30d1fa"/><rect x="4" y="12" width="8" height="2" fill="#0b1118"/><rect x="5" y="11" width="6" height="2" fill="#ffb03a"/></g>
  <g id="toxin" transform="translate(64)"><rect x="5" y="1" width="6" height="2" fill="#eaf8fc"/><rect x="4" y="3" width="8" height="10" fill="#30d1fa"/><rect x="6" y="5" width="4" height="5" fill="#0f1822"/><rect x="2" y="7" width="3" height="2" fill="#ffb03a"/><rect x="11" y="7" width="3" height="2" fill="#ffb03a"/><rect x="7" y="4" width="2" height="7" fill="#ffb03a"/><rect x="3" y="13" width="10" height="2" fill="#eaf8fc"/></g>
  <g id="lyse" transform="translate(80)"><rect x="2" y="3" width="5" height="2" fill="#30d1fa"/><rect x="9" y="3" width="5" height="2" fill="#30d1fa"/><rect x="1" y="5" width="3" height="7" fill="#30d1fa"/><rect x="12" y="5" width="3" height="7" fill="#30d1fa"/><rect x="4" y="5" width="2" height="2" fill="#eaf8fc"/><rect x="10" y="9" width="2" height="2" fill="#eaf8fc"/><rect x="6" y="7" width="4" height="2" fill="#ffb03a"/><rect x="7" y="9" width="2" height="3" fill="#ffb03a"/><rect x="4" y="12" width="8" height="2" fill="#0b1118"/></g>
  <g id="chemo" transform="translate(96)"><rect x="3" y="2" width="3" height="3" fill="#30d1fa"/><rect x="10" y="2" width="3" height="3" fill="#30d1fa"/><rect x="2" y="5" width="12" height="2" fill="#30d1fa"/><rect x="5" y="7" width="6" height="2" fill="#30d1fa"/><rect x="6" y="9" width="4" height="2" fill="#eaf8fc"/><rect x="7" y="11" width="2" height="3" fill="#eaf8fc"/><rect x="1" y="12" width="4" height="2" fill="#ffb03a"/><rect x="11" y="12" width="4" height="2" fill="#ffb03a"/></g>
  <g id="mutate" transform="translate(112)"><rect x="3" y="1" width="2" height="3" fill="#ffb03a"/><rect x="11" y="1" width="2" height="3" fill="#ffb03a"/><rect x="5" y="3" width="6" height="2" fill="#30d1fa"/><rect x="5" y="5" width="2" height="3" fill="#30d1fa"/><rect x="9" y="5" width="2" height="3" fill="#30d1fa"/><rect x="3" y="7" width="10" height="2" fill="#eaf8fc"/><rect x="5" y="9" width="2" height="3" fill="#30d1fa"/><rect x="9" y="9" width="2" height="3" fill="#30d1fa"/><rect x="3" y="11" width="2" height="3" fill="#ffb03a"/><rect x="11" y="11" width="2" height="3" fill="#ffb03a"/></g>
  <g id="homing" transform="translate(128)"><rect x="2" y="6" width="10" height="4" fill="#ffb03a"/><rect x="4" y="4" width="6" height="8" fill="#ffb03a"/><rect x="11" y="5" width="2" height="6" fill="#30d1fa"/><rect x="13" y="7" width="2" height="2" fill="#30d1fa"/><rect x="3" y="7" width="3" height="2" fill="#eaf8fc"/><rect x="6" y="5" width="2" height="2" fill="#eaf8fc"/><rect x="6" y="9" width="2" height="2" fill="#eaf8fc"/><rect x="1" y="4" width="2" height="2" fill="#30d1fa"/><rect x="1" y="10" width="2" height="2" fill="#30d1fa"/></g>
  <g id="mucus" transform="translate(144)"><rect x="5" y="2" width="6" height="2" fill="#ffb03a"/><rect x="3" y="4" width="10" height="7" fill="#ffb03a"/><rect x="5" y="11" width="6" height="3" fill="#ffb03a"/><rect x="6" y="5" width="4" height="2" fill="#eaf8fc"/><rect x="4" y="8" width="3" height="2" fill="#eaf8fc"/><rect x="9" y="8" width="3" height="2" fill="#eaf8fc"/><rect x="1" y="12" width="2" height="2" fill="#30d1fa"/><rect x="13" y="12" width="2" height="2" fill="#30d1fa"/></g>
  <g id="jump" transform="translate(160)"><rect x="7" y="1" width="2" height="4" fill="#eaf8fc"/><rect x="7" y="11" width="2" height="4" fill="#eaf8fc"/><rect x="1" y="7" width="4" height="2" fill="#eaf8fc"/><rect x="11" y="7" width="4" height="2" fill="#eaf8fc"/><rect x="5" y="5" width="6" height="6" fill="#30d1fa"/><rect x="7" y="3" width="2" height="10" fill="#ffb03a"/><rect x="3" y="7" width="10" height="2" fill="#ffb03a"/></g>
  <g id="ossify" transform="translate(176)"><rect x="1" y="3" width="4" height="4" fill="#eaf8fc"/><rect x="11" y="9" width="4" height="4" fill="#eaf8fc"/><rect x="4" y="5" width="8" height="6" fill="#ffb03a"/><rect x="6" y="3" width="4" height="2" fill="#ffb03a"/><rect x="6" y="11" width="4" height="2" fill="#ffb03a"/><rect x="7" y="6" width="2" height="4" fill="#0b1118"/><rect x="5" y="7" width="6" height="2" fill="#0b1118"/></g>
  <g id="end" transform="translate(192)"><rect x="3" y="2" width="2" height="12" fill="#eaf8fc"/><rect x="5" y="3" width="8" height="2" fill="#30d1fa"/><rect x="11" y="5" width="2" height="5" fill="#30d1fa"/><rect x="5" y="10" width="8" height="2" fill="#30d1fa"/><rect x="7" y="6" width="3" height="2" fill="#ffb03a"/><rect x="9" y="7" width="3" height="2" fill="#ffb03a"/><rect x="11" y="8" width="3" height="2" fill="#ffb03a"/></g>
</svg>
